<?xml version="1.0" encoding="utf-8"?>
<!-- Generator: Adobe Illustrator 23.0.5, SVG Export Plug-In . SVG Version: 6.00 Build 0)  -->
<svg version="1.1" id="Layer_1" xmlns="http://www.w3.org/2000/svg" xmlns:xlink="http://www.w3.org/1999/xlink" x="0px" y="0px"
	 viewBox="0 0 488.8 279.4" style="enable-background:new 0 0 488.8 279.4;" xml:space="preserve">
<style type="text/css">
	.st0{fill:#5D7375;}
	.st1{fill:#F2E5CC;}
	.st2{fill:#4D656D;}
	.st3{fill:#EEEBDF;}
	.st4{fill:#ABBF55;}
	.st5{fill:#3A5056;}
	.st6{fill:#ADADAD;}
	.st7{fill:#EBF0F3;}
</style>
<g>
	<rect x="271.3" y="188.6" class="st0" width="40.3" height="50.6"/>
	<path class="st0" d="M18.9,224.2c0,10.7,8.7,19.4,19.4,19.4h413.6c9.5,0,17.3-8.1,17.3-18v-19.3H18.9V224.2z"/>
	<path class="st1" d="M488.8,179.3v28c0,2.9-0.7,5.7-2,8.1c-2.9,5.4-8.6,9.1-15.2,9.1H311.5V70.3c0-17.2,13.9-31.2,31.2-31.2h62
		c15.2,0,29.1,8.6,35.8,22.2l5.6,11.2l33.4,67.2c1.5,3.1,2.8,6.1,3.9,9.3C487.1,158.7,488.8,169,488.8,179.3z"/>
	<path class="st0" d="M357.4,153.1h48.3c10.3,0,17.2-10.5,13.3-20l-20.1-47.7c-2.2-5.3-7.5-8.8-13.3-8.8h-28.2
		c-7.9,0-14.4,6.4-14.4,14.4v47.7C343.1,146.7,349.5,153.1,357.4,153.1z"/>
	<path class="st0" d="M483.5,153.1h-17c-5.8,0-10.9-3.5-13.2-8.8l-20.1-47.7c-3.9-9.4,2.9-19.8,13.1-19.9l33.4,67.1
		C481.1,146.8,482.4,149.9,483.5,153.1z"/>
	<path class="st2" d="M343.1,195h-12.7c-2.1,0-3.8-1.7-3.8-3.8v-0.8c0-2.1,1.7-3.8,3.8-3.8h12.7c2.1,0,3.8,1.7,3.8,3.8v0.8
		C346.8,193.3,345.2,195,343.1,195z"/>
	<path class="st3" d="M488.8,183.5v23.8c0,2.9-0.7,5.7-2,8.1h-13.6v-31.9H488.8z"/>
	<path class="st4" d="M22.1,210.7h253.1c12.2,0,22.1-9.9,22.1-22.1V22.1c0-12.2-9.9-22.1-22.1-22.1L69.1,0c-5.9,0-11.6,2.4-15.8,6.6
		l-47,48C2.3,58.8,0,64.3,0,70.1l0,118.5C0,200.8,9.9,210.7,22.1,210.7z"/>
	<g>
		<path class="st5" d="M208.9,241.7c0,20.8-16.9,37.7-37.7,37.7c-20.8,0-37.7-16.9-37.7-37.7s16.9-37.7,37.7-37.7
			C192,203.9,208.9,220.8,208.9,241.7z"/>
		<path class="st6" d="M192.9,241.7c0,12-9.7,21.7-21.7,21.7c-12,0-21.7-9.7-21.7-21.7c0-12,9.7-21.7,21.7-21.7
			C183.2,219.9,192.9,229.7,192.9,241.7z"/>
	</g>
	<g>
		
			<ellipse transform="matrix(0.9996 -2.777640e-02 2.777640e-02 0.9996 -6.6811 2.3527)" class="st5" cx="81.3" cy="241.7" rx="37.7" ry="37.7"/>
		<path class="st6" d="M103.1,241.7c0,12-9.7,21.7-21.7,21.7c-12,0-21.7-9.7-21.7-21.7c0-12,9.7-21.7,21.7-21.7
			C93.3,219.9,103.1,229.7,103.1,241.7z"/>
	</g>
	<g>
		
			<ellipse transform="matrix(0.2278 -0.9737 0.9737 0.2278 44.577 539.5327)" class="st5" cx="362.5" cy="241.7" rx="37.7" ry="37.7"/>
		<path class="st6" d="M384.2,241.7c0,12-9.7,21.7-21.7,21.7c-12,0-21.7-9.7-21.7-21.7c0-12,9.7-21.7,21.7-21.7
			C374.5,219.9,384.2,229.7,384.2,241.7z"/>
	</g>
	<g>
		<path class="st7" d="M193.4,61.6L182.7,43c-1.4-2.5-3.5-4.6-6.2-6.2c-2.7-1.5-5.6-2.3-8.4-2.3H139h-9.7c0,0,0.1,0,0.1,0h-0.1
			c-5.9,0-11.2,3.1-14.2,7.7c0,0,0,0,0,0l-0.8,1.4c0,0,0,0.1,0,0.1l-13.8,23.8l29.2,16.8L143,61.3l1.7-2.9l4-7l15.6,27l-10.5,6.1
			h33.4l16.7-28.9L193.4,61.6z"/>
		<path class="st7" d="M220.9,126C220.9,126,220.8,126,220.9,126L220.9,126c3-5.1,2.9-11.2,0.4-16.1c0,0,0,0,0,0l-0.8-1.4
			c0,0,0-0.1,0-0.1l-13.8-23.8l-29.2,16.8l13.4,23.2l1.7,2.9l4,7l-31.2,0v-12.1l-7,12.1h0v0l-9.7,16.8l16.7,29V168h21.5v0
			c2.9,0,5.8-0.7,8.4-2.3c2.7-1.5,4.7-3.7,6.2-6.2l14.5-25l0.2-0.4L220.9,126z"/>
		<path class="st7" d="M108.8,134.4l-8.1,0h0l15.6-27l10.5,6.1l-7-12.1l0,0l0,0l-9.7-16.8l-19.4,0l0,0l0,0l-14,0l10.5,6.1
			l-10.7,18.6c-1.4,2.5-2.3,5.3-2.3,8.4c0,3.1,0.8,5.9,2.3,8.4l14.6,25.2l0.8,1.4l4,7c3,5.1,8.2,8.1,13.8,8.4c0,0,0,0,0,0h1.6
			c0,0,0.1,0,0.1,0l27.5,0v-33.7h-26.8H108.8z"/>
	</g>
</g>
</svg>
