<svg width="1920" height="1080" viewBox="0 0 1920 1080" fill="none" xmlns="http://www.w3.org/2000/svg">
<g clip-path="url(#clip0_1_2)">
<mask id="mask0_1_2" style="mask-type:luminance" maskUnits="userSpaceOnUse" x="0" y="0" width="1920" height="1080">
<path d="M1920 0H0V1080H1920V0Z" fill="white"/>
</mask>
<g mask="url(#mask0_1_2)">
<path d="M1920 0H0V1080H1920V0Z" fill="#FFE6C9"/>
<path d="M1558.63 956.585L1567.37 701.373C1567.7 691.664 1559.38 683.902 1549.72 684.912L1446.92 695.664L1339.69 706.88C1331.75 707.711 1325.64 714.267 1325.37 722.246L1316.63 977.614C1316.3 987.327 1324.63 995.091 1334.3 994.073L1544.32 971.95C1552.25 971.114 1558.36 964.56 1558.63 956.585Z" fill="#C9B4A4"/>
<path d="M1445.5 538.443L1323 551.501L1318.5 676.501L1441 663.943L1445.5 538.443Z" fill="#C9B4A4"/>
<path d="M1581 524L1458.5 537.057L1454 662.057L1576.5 649.5L1581 524Z" fill="#C9B4A4"/>
<path d="M1342.5 212.5L1254 231.5L1322 509.5L1389 453L1342.5 212.5Z" fill="#C9B4A4"/>
<path d="M1286.5 411L1246.5 244.5L1078.5 535L1205.5 522L1286.5 411Z" fill="#C9B4A4"/>
<path d="M1589 316L1364.5 505L1583.5 481.5L1589 316Z" fill="#C9B4A4"/>
<path d="M1378.5 320.5L1358 209L1594 159L1591.5 225L1378.5 320.5Z" fill="#C9B4A4"/>
<path d="M1381 333.5L1591.5 238.5L1590 285L1401 443.5L1381 333.5Z" fill="#C9B4A4"/>
<path d="M1823 496.5L1604 519L1599.5 650L1749.5 636L1823 496.5Z" fill="#C9B4A4"/>
<path d="M1738.5 656L1599.5 668.5L1590.5 934L1738.5 656Z" fill="#C9B4A4"/>
<path d="M1192 563.5L1078 576L1101 672.5L1202 648L1192 563.5Z" fill="#C9B4A4"/>
<path d="M1203.5 657L1101 685.5L1133 823L1216.5 755L1203.5 657Z" fill="#C9B4A4"/>
<path d="M1201.5 563L1300.5 553.5V594L1206 600.5L1201.5 563Z" fill="#C9B4A4"/>
<path d="M1298.5 599.5L1207.5 606.5L1214 659L1297 655.5L1298.5 599.5Z" fill="#C9B4A4"/>
<path d="M1215 665L1297 662L1295.5 687.5L1225.5 746.5L1215 665Z" fill="#C9B4A4"/>
<path d="M1749 791.5L1707 765L1587.5 984.5L1584 1082.5H1625V1005.5L1749 791.5Z" fill="#C9B4A4"/>
<path d="M1713 751L1846.5 494.5L1921.5 488V881.5L1713 751Z" fill="#C9B4A4"/>
<path d="M1924.5 901L1761.5 803L1738.5 844L1875.5 928V979.5L1924.5 1010V901Z" fill="#C9B4A4"/>
<path d="M1690.5 939L1647 1011.5V1085.5L1923 1090V1023L1876.5 996V1085.5L1722 1011.5L1736.5 965L1690.5 939Z" fill="#C9B4A4"/>
<path d="M1305.5 1029L1302.5 1083.5H1369V1022.5L1305.5 1029Z" fill="#C9B4A4"/>
<path d="M1375.5 1083.5V1022.5L1467.5 1012.5V1082L1375.5 1083.5Z" fill="#C9B4A4"/>
<path d="M1475.5 1082L1474.5 1011L1565 1002L1562 1081L1475.5 1082Z" fill="#C9B4A4"/>
<path d="M1613 211V154L1716.5 132.5V226.5L1613 211Z" fill="#C9B4A4"/>
<path d="M1715.5 239.5L1615 225.5L1611.5 288.5L1673 332.5L1715.5 239.5Z" fill="#C9B4A4"/>
<path d="M1729.5 245.5L1684.5 340L1762.5 399L1819 306.5L1729.5 245.5Z" fill="#C9B4A4"/>
<path d="M1832 315.5L1773.5 407L1841 455.5H1880V353L1832 315.5Z" fill="#C9B4A4"/>
<path d="M1890.5 321.5V451H1921.5V295L1890.5 321.5Z" fill="#C9B4A4"/>
<path d="M1729.5 228.5V129.5L1819 111L1826.5 196.5L1788.5 268L1729.5 228.5Z" fill="#C9B4A4"/>
<path d="M1838.5 196.5L1831 108.5L1921.5 88.5V176.5L1838.5 196.5Z" fill="#C9B4A4"/>
<path d="M1355 49.5L1273 188L1594.5 119V44.5L1355 49.5Z" fill="#C9B4A4"/>
<path d="M1619.5 -2.5V117L1923.5 48.5V-2.5H1619.5Z" fill="#C9B4A4"/>
<path d="M1593 28L1368 33L1388 -2.5H1593V28Z" fill="#C9B4A4"/>
<path d="M1066 513.5L1016 281L1108 262L1133.5 396.5L1066 513.5Z" fill="#C9B4A4"/>
<path d="M1143.5 380.5L1121 259.5L1224.5 237.5L1143.5 380.5Z" fill="#C9B4A4"/>
<path d="M1318.5 81.5L1367 -3L1101.5 -0.5L1123.5 57.5L1318.5 81.5Z" fill="#C9B4A4"/>
<path d="M1107.5 55L1086.5 -3H897.5L880 24L1107.5 55Z" fill="#C9B4A4"/>
<path d="M1121 219.5L1130 78L1304 99.5L1252.5 192L1121 219.5Z" fill="#C9B4A4"/>
<path d="M1105.5 222L1113 75L869.5 45L837 101L906 264.5L1105.5 222Z" fill="#C9B4A4"/>
<path d="M889 268.5L826.5 118L719 304L889 268.5Z" fill="#C9B4A4"/>
<path d="M812.5 563.5L918.5 305L979.5 290L1036 541L812.5 563.5Z" fill="#C9B4A4"/>
<path d="M801.5 565.5L746 571L735.5 480L861.5 420L801.5 565.5Z" fill="#C9B4A4"/>
<path d="M863 412L734 472.5L718.5 343L908.5 305.5L863 412Z" fill="#C9B4A4"/>
<path d="M592 627L526.5 633L429.5 805.5L745.5 782L740.5 738L520.5 754L592 627Z" fill="#C9B4A4"/>
<path d="M747 797L422 820L366 917L754.5 876L747 797Z" fill="#C9B4A4"/>
<path d="M755.5 684.5L747 612L1040.5 580L1098 840L890.5 865.5L886 817L1009.5 781.5L985.5 654.5L755.5 684.5Z" fill="#C9B4A4"/>
<path d="M974.5 673L759 701L771 827L994.5 772.5L974.5 673Z" fill="#C9B4A4"/>
<path d="M389 646.5L232.5 664.5L347.5 910L403 806L389 646.5Z" fill="#C9B4A4"/>
<path d="M410.5 800.5L397.5 646.5L502.5 637.5L410.5 800.5Z" fill="#C9B4A4"/>
<path d="M554 591L695 348H700L723.5 573.5L554 591Z" fill="#C9B4A4"/>
<path d="M220 628.5L147.5 464.5L313 429V618.5L220 628.5Z" fill="#C9B4A4"/>
<path d="M322 616.5V428L460.5 399.5L385.5 610.5L322 616.5Z" fill="#C9B4A4"/>
<path d="M435 489.5L467 398.5L664 356.5L598 472L435 489.5Z" fill="#C9B4A4"/>
<path d="M136 331.5L159.5 197L-0.5 230L-1.5 321L136 331.5Z" fill="#C9B4A4"/>
<path d="M119 431L135.5 337.5L55 332L66.5 442.5L119 431Z" fill="#C9B4A4"/>
<path d="M55.5 390L49.5 332L-2 328V402L55.5 390Z" fill="#C9B4A4"/>
<path d="M61.5 443.5L56 394.5L-1 407V456.5L61.5 443.5Z" fill="#C9B4A4"/>
<path d="M1303.98 489.927L1295.06 453.143C1292.06 440.781 1276 437.529 1268.42 447.751L1237.95 488.888C1230.16 499.409 1238.64 514.164 1251.65 512.726L1291.05 508.373C1300.04 507.38 1306.11 498.716 1303.98 489.927Z" fill="#77BB66"/>
<path d="M1565.5 978.312L1575.97 674L1447.22 687.405L1318.47 700.811L1308 1005.31L1565.5 978.312Z" fill="#77BB66"/>
<path d="M1553.86 958.402L1562.43 700.264C1562.73 691.148 1554.89 683.875 1545.83 684.854L1445.28 695.705L1340.52 707.012C1333.09 707.814 1327.38 713.96 1327.14 721.428L1318.57 979.723C1318.27 988.843 1326.11 996.118 1335.19 995.132L1540.49 972.817C1547.92 972.01 1553.62 965.866 1553.86 958.402Z" fill="#77BB66"/>
<path d="M1258.7 760.873L1163.59 839.66C1156.64 845.416 1156.31 855.959 1162.88 862.14L1251.96 945.896C1261.34 954.717 1276.75 948.393 1277.22 935.524L1283.26 772.981C1283.74 760.031 1268.68 752.606 1258.7 760.873Z" fill="#77BB66"/>
<path d="M1798.5 723L1871.5 567L1926 590V712.5L1903.5 788.5L1798.5 723Z" fill="#77BB66"/>
<path d="M1813.33 707.191L1866.46 589.779C1869.9 582.187 1878.86 578.851 1886.42 582.348L1923.33 599.414C1927.54 601.361 1930.61 605.146 1931.65 609.666L1940.51 648.2C1941.16 651.007 1940.98 653.941 1940 656.651L1921 709.348L1906.62 759.565C1903.85 769.241 1892.53 773.497 1884.07 768.042L1818.87 725.98C1812.62 721.952 1810.27 713.96 1813.33 707.191Z" fill="#77BB66"/>
<path d="M1870.08 1051.92L1868.14 940.143C1868.05 935.065 1865.4 930.376 1861.09 927.684L1757.47 862.918C1750.16 858.349 1740.51 860.868 1736.37 868.427L1705.7 924.359C1701.72 931.619 1704.38 940.73 1711.63 944.716L1732.93 956.417C1739.33 959.932 1742.27 967.542 1739.89 974.444L1732.38 996.272C1729.89 1003.51 1733.25 1011.47 1740.18 1014.73L1848.7 1065.75C1858.75 1070.48 1870.27 1063.02 1870.08 1051.92Z" fill="#77BB66"/>
<path d="M1805.55 261.214L1833.79 212.528C1835.84 208.996 1839.24 206.452 1843.21 205.484L1904.44 190.532C1913.89 188.225 1923 195.379 1923 205.104V271.83C1923 276.364 1920.95 280.655 1917.42 283.503L1875.28 317.509C1869.85 321.894 1862.11 321.95 1856.61 317.643L1809.27 280.548C1803.38 275.933 1801.79 267.685 1805.55 261.214Z" fill="#77BB66"/>
<path d="M555.479 715.814L593.104 644.395C595.526 639.798 600.155 636.781 605.339 636.422L697.781 630.02C705.949 629.454 713.062 635.543 713.762 643.701L719.689 712.736C720.409 721.113 714.102 728.446 705.712 728.988L569.717 737.774C558.021 738.53 550.016 726.182 555.479 715.814Z" fill="#77BB66"/>
<path d="M789.351 73.8529L448.386 144.341C434.499 147.212 431.981 165.967 444.619 172.399L674.935 289.606C681.997 293.199 690.636 290.681 694.66 283.855L805.31 96.1599C811.918 84.9498 802.095 71.2184 789.351 73.8529Z" fill="#77BB66"/>
<path d="M335.141 166.728L199.678 197.781C193.811 199.126 189.316 203.849 188.262 209.776L155.387 394.643C153.527 405.102 162.831 414.128 173.229 411.95L590.238 324.639C604.051 321.747 606.59 303.117 594.055 296.634L345.383 168.026C342.23 166.395 338.601 165.935 335.141 166.728Z" fill="#77BB66"/>
<path d="M246.824 118.523L225.514 107.541C216.409 102.849 205.383 108.461 203.819 118.584L201.596 132.965C200.057 142.928 208.587 151.543 218.565 150.102L242.098 146.703C256.548 144.615 259.802 125.211 246.824 118.523Z" fill="#77BB66"/>
<path d="M119.5 482L-19 511V647.5L184 618L119.5 482Z" fill="#77BB66"/>
<path d="M554.562 486.683L443.467 498.493C437.689 499.108 432.785 503.005 430.881 508.495L407.233 576.697C403.634 587.078 412.049 597.679 422.976 596.529L515.558 586.783C520.244 586.29 524.426 583.624 526.85 579.583L569.01 509.316C575.38 498.7 566.873 485.374 554.562 486.683Z" fill="#77BB66"/>
<path d="M781.828 850.695L781.489 847.692C780.639 840.161 785.541 833.178 792.914 831.419L861.649 815.02C870.538 812.9 879.241 819.152 880.068 828.253L881.162 840.284C881.904 848.447 875.957 855.694 867.806 856.558L798.316 863.929C790.117 864.798 782.753 858.888 781.828 850.695Z" fill="#77BB66"/>
<path d="M357.789 994.662L256.359 1203.67C240.243 1236.88 264.43 1275.5 301.341 1275.5H1093.22C1124.7 1275.5 1148.35 1246.75 1142.28 1215.86L1088.77 943.604C1083.8 918.313 1060.41 900.945 1034.77 903.492L397.831 966.736C380.538 968.454 365.377 979.027 357.789 994.662Z" fill="#78A4F8"/>
<path d="M1620 433.592V398.709C1620 374.325 1647.55 360.127 1667.41 374.276L1710.73 405.145C1733.38 421.282 1723.79 456.884 1696.09 459.45L1652.77 463.464C1635.18 465.093 1620 451.254 1620 433.592Z" fill="#78A4F8"/>
<path d="M241.848 -56.2818L229.944 19.2759C226.434 41.5485 238.266 63.4144 258.831 72.6604L338.36 108.418C347.881 112.698 358.502 113.892 368.736 111.831L826.862 19.5594C841.225 16.6666 853.597 7.61972 860.707 -5.19047L871.278 -24.2342C889.776 -57.5604 865.677 -98.5 827.561 -98.5H291.239C266.629 -98.5 245.678 -80.5919 241.848 -56.2818Z" fill="#78A4F8"/>
<path d="M301.9 911.015L216.281 720.406C207.455 700.758 187.04 688.97 165.612 691.15L-137.059 721.93C-162.582 724.525 -182 746.018 -182 771.673V1203C-182 1230.61 -159.614 1253 -132 1253H110.132C128.528 1253 145.438 1242.9 154.158 1226.7L300.316 955.204C307.682 941.521 308.268 925.191 301.9 911.015Z" fill="#78A4F8"/>
<path d="M148.267 170.633L14.2108 200.009C4.85473 202.06 -4 194.935 -4 185.357V10C-4 1.71573 2.71572 -5 11 -5H171.98C181.354 -5 188.432 3.50215 186.732 12.7207L159.807 158.701C158.712 164.638 154.164 169.341 148.267 170.633Z" fill="#78A4F8"/>
<path d="M1952.87 40.0013L-24 460.197L-15.2677 501.279L1961.6 81.0835L1952.87 40.0013Z" fill="#F7F7F7"/>
<path d="M1972.36 440.901L-38.8389 652.287L-34.4487 694.057L1976.75 482.671L1972.36 440.901Z" fill="#F7F7F7"/>
<path d="M1204.75 1155.86L1010.08 240L968.998 248.732L1163.67 1164.59L1204.75 1155.86Z" fill="#F7F7F7"/>
<path d="M1583.74 1128.97L1618.63 129.895L1594.64 129.057L1559.76 1128.14L1583.74 1128.97Z" fill="#F7F7F7"/>
<path d="M1302.99 1129.97L1323.9 531.061L1299.91 530.223L1279 1129.14L1302.99 1129.97Z" fill="#F7F7F7"/>
<path d="M913 -76.9958L208 1144.1L228.785 1156.1L933.785 -64.9958L913 -76.9958Z" fill="#F7F7F7"/>
<path d="M803.721 1117.82L717.869 301L694 303.509L779.852 1120.33L803.721 1117.82Z" fill="#F7F7F7"/>
<path d="M352.388 922.184L135.925 436L114 445.762L330.463 931.946L352.388 922.184Z" fill="#F7F7F7"/>
<path d="M1115.48 837.296L343.12 918.475L345.629 942.344L1117.99 861.165L1115.48 837.296Z" fill="#F7F7F7"/>
<path d="M1589.83 647.999L1313.89 677.002L1316.4 700.871L1592.34 671.868L1589.83 647.999Z" fill="#F7F7F7"/>
<path d="M1305.67 677.954L1117.22 836.082L1132.65 854.467L1321.1 696.339L1305.67 677.954Z" fill="#F7F7F7"/>
<path d="M1590.38 283.984L1306.96 521.799L1322.39 540.184L1605.8 302.369L1590.38 283.984Z" fill="#F7F7F7"/>
<path d="M199.746 -33.9992L114 452.293L137.635 456.461L223.382 -29.8316L199.746 -33.9992Z" fill="#F7F7F7"/>
<path d="M1597.35 306.9L1837.64 481.48L1851.75 462.064L1611.46 287.483L1597.35 306.9Z" fill="#F7F7F7"/>
<path d="M1832.07 478.626L1558.74 992.684L1579.93 1003.95L1853.26 489.893L1832.07 478.626Z" fill="#F7F7F7"/>
<path d="M1372.39 -21.2825L1044.06 547.393L1064.84 559.393L1393.17 -9.28254L1372.39 -21.2825Z" fill="#F7F7F7"/>
<path d="M1312.59 77.9755L865.031 21L862 44.8079L1309.56 101.783L1312.59 77.9755Z" fill="#F7F7F7"/>
<path d="M873.308 21L-4.28906 207.539L0.700818 231.015L878.298 44.4756L873.308 21Z" fill="#F7F7F7"/>
<path d="M1310.63 1014.89L1133.67 844L1117 861.264L1293.96 1032.15L1310.63 1014.89Z" fill="#F7F7F7"/>
<path d="M1572.84 978.003L1290 1007.73L1292.51 1031.6L1575.34 1001.87L1572.84 978.003Z" fill="#F7F7F7"/>
<path d="M704.735 315.82L207.233 62.3301L196.337 83.7143L693.839 337.204L704.735 315.82Z" fill="#F7F7F7"/>
</g>
</g>
<defs>
<clipPath id="clip0_1_2">
<rect width="1920" height="1080" fill="white"/>
</clipPath>
</defs>
</svg>
