<svg id="publicdomainvectors.org" xmlns="http://www.w3.org/2000/svg" viewBox="0 0 127.3 196.1">
  <rect x="87.2" y="180.1" width="13.4" height="16" fill="#5c7827"/>
  <polygon points="8.2 14.7 119 14.7 106.3 184.7 20.9 184.7 8.2 14.7" fill="#84a644" fill-rule="evenodd"/>
  <path d="M24.3,196.1a11.9,11.9,0,1,0-11.9-11.9A11.93,11.93,0,0,0,24.3,196.1Z" fill="#313033" fill-rule="evenodd"/>
  <path d="M24.3,191a6.7,6.7,0,1,0-6.7-6.7A6.7,6.7,0,0,0,24.3,191Z" fill="#84a644" fill-rule="evenodd"/>
  <path d="M45.8,45.5h0A11.14,11.14,0,0,1,56.9,56.6v86.2a11.14,11.14,0,0,1-11.1,11.1h0a11.14,11.14,0,0,1-11.1-11.1V56.6A11.14,11.14,0,0,1,45.8,45.5Zm35.6,0h0A11.14,11.14,0,0,1,92.5,56.6v86.2a11.14,11.14,0,0,1-11.1,11.1h0a11.14,11.14,0,0,1-11.1-11.1V56.6A11.14,11.14,0,0,1,81.4,45.5Z" fill="#749634" fill-rule="evenodd"/>
  <polygon points="0 21.6 127.3 21.6 124.1 0 3.1 0 0 21.6" fill="#98ba59" fill-rule="evenodd"/>
</svg>
